{
	"asset":{
		"generator":"Khronos glTF Blender I/O v4.1.63",
		"version":"2.0"
	},
	"scene":0,
	"scenes":[
		{
			"extras":{
				"CC3ImportProps":{}
			},
			"name":"Scene",
			"nodes":[
				29
			]
		}
	],
	"nodes":[
		{
			"name":"Head",
			"rotation":[
				0.40816956758499146,
				-3.2883056633181695e-07,
				-1.7026055729729705e-06,
				0.9129061698913574
			],
			"translation":[
				2.0372681319713593e-09,
				0.1612451821565628,
				3.082095645368099e-08
			]
		},
		{
			"children":[
				0
			],
			"name":"Neck",
			"rotation":[
				-0.07990720868110657,
				0.011808459646999836,
				0.019164547324180603,
				0.9965481162071228
			],
			"scale":[
				0.9999999403953552,
				1,
				1.0000001192092896
			],
			"translation":[
				-1.2538308878564525e-13,
				0.29154759645462036,
				-2.60770320892334e-08
			]
		},
		{
			"name":"UnderLeg.F.L",
			"rotation":[
				-0.0010516553884372115,
				0.008299666456878185,
				-0.0020793690346181393,
				0.9999628663063049
			],
			"scale":[
				0.9999995827674866,
				1,
				0.9999997615814209
			],
			"translation":[
				-3.259629011154175e-08,
				0.30057239532470703,
				9.313225746154785e-09
			]
		},
		{
			"children":[
				2
			],
			"name":"UpperLeg.F.L",
			"rotation":[
				-0.2854316234588623,
				0.11992467939853668,
				0.7497044801712036,
				0.5848846435546875
			],
			"scale":[
				0.9999997615814209,
				1.0000001192092896,
				0.9999997615814209
			],
			"translation":[
				6.193295121192932e-08,
				0.10009320825338364,
				1.862645149230957e-09
			]
		},
		{
			"children":[
				3
			],
			"name":"Shoulder.L",
			"rotation":[
				0.4279457926750183,
				0.7680434584617615,
				-0.14843399822711945,
				0.45270195603370667
			],
			"scale":[
				1,
				0.9999998211860657,
				0.9999998807907104
			],
			"translation":[
				0.015711994841694832,
				0.23595336079597473,
				0.007857698947191238
			]
		},
		{
			"name":"UnderLeg.F.R",
			"rotation":[
				-0.0010516324546188116,
				-0.008299664594233036,
				0.0020793750882148743,
				0.9999628663063049
			],
			"translation":[
				-1.885928213596344e-08,
				0.30057239532470703,
				1.4901161193847656e-08
			]
		},
		{
			"children":[
				5
			],
			"name":"UpperLeg.F.R",
			"rotation":[
				-0.28543156385421753,
				-0.11992460489273071,
				-0.7497044801712036,
				0.5848846435546875
			],
			"scale":[
				0.9999997019767761,
				1.0000001192092896,
				0.9999996423721313
			],
			"translation":[
				-1.1618249118328094e-07,
				0.10009319335222244,
				-9.313225746154785e-09
			]
		},
		{
			"children":[
				6
			],
			"name":"Shoulder.R",
			"rotation":[
				0.4279463291168213,
				-0.768041729927063,
				0.1484323889017105,
				0.45270487666130066
			],
			"scale":[
				1,
				0.9999998211860657,
				0.9999999403953552
			],
			"translation":[
				-0.015711935237050056,
				0.23595336079597473,
				0.00785781815648079
			]
		},
		{
			"name":"UnderLeg.F.L.001",
			"rotation":[
				0.31121641397476196,
				0.4914495348930359,
				0.193595752120018,
				0.790026843547821
			],
			"scale":[
				0.9999999403953552,
				1,
				0.9999999403953552
			],
			"translation":[
				0.04776958003640175,
				0.0358208604156971,
				0.39665815234184265
			]
		},
		{
			"name":"UnderLeg.F.R.001",
			"rotation":[
				0.31121569871902466,
				-0.4914466142654419,
				-0.1935969740152359,
				0.7900286912918091
			],
			"scale":[
				0.9999999403953552,
				0.9999998807907104,
				0.9999998211860657
			],
			"translation":[
				-0.0477665551006794,
				0.03582088649272919,
				0.3966584801673889
			]
		},
		{
			"children":[
				1,
				4,
				7,
				8,
				9
			],
			"name":"Chest",
			"rotation":[
				0.023789333179593086,
				-8.342524324689293e-07,
				-7.089827391837389e-08,
				0.9997169971466064
			],
			"scale":[
				1,
				0.9999999403953552,
				0.9999999403953552
			],
			"translation":[
				2.7103617744259068e-14,
				0.18027755618095398,
				1.4901161193847656e-08
			]
		},
		{
			"children":[
				10
			],
			"name":"Spine",
			"rotation":[
				0.10388614982366562,
				-1.411849283317057e-11,
				-2.2291392554052436e-07,
				0.9945892095565796
			],
			"scale":[
				1,
				1,
				0.9999999403953552
			],
			"translation":[
				2.99063413465063e-14,
				0.13152949512004852,
				-1.4901161193847656e-08
			]
		},
		{
			"name":"Paw.B.L",
			"rotation":[
				-0.06892868131399155,
				-0.024719631299376488,
				0.07189585268497467,
				0.994720458984375
			],
			"scale":[
				1,
				1.0000001192092896,
				1.0000001192092896
			],
			"translation":[
				-1.0011717677116394e-08,
				0.16137124598026276,
				9.313225746154785e-10
			]
		},
		{
			"children":[
				12
			],
			"name":"LowerLeg.B.L",
			"rotation":[
				-0.3005785644054413,
				-0.02095084637403488,
				0.005467921961098909,
				0.9535112977027893
			],
			"scale":[
				0.9999999403953552,
				0.9999998807907104,
				0.9999998211860657
			],
			"translation":[
				4.889443516731262e-09,
				0.22466495633125305,
				1.1175870895385742e-08
			]
		},
		{
			"children":[
				13
			],
			"name":"UpperLeg.B.L",
			"rotation":[
				0.6283590197563171,
				0.08428061753511429,
				0.086970753967762,
				0.7684385776519775
			],
			"scale":[
				1,
				1,
				1.0000001192092896
			],
			"translation":[
				0,
				0.20572470128536224,
				-8.032657206058502e-09
			]
		},
		{
			"children":[
				14
			],
			"name":"Hip.L",
			"rotation":[
				0.1560410112142563,
				0.032677024602890015,
				-0.17587700486183167,
				0.9714168310165405
			],
			"scale":[
				1,
				1,
				0.9999999403953552
			],
			"translation":[
				0.028727751225233078,
				0.006814517080783844,
				0.0010483243968337774
			]
		},
		{
			"name":"Paw.B.R",
			"rotation":[
				-0.06892871111631393,
				0.024719681590795517,
				-0.07189586758613586,
				0.994720458984375
			],
			"scale":[
				0.9999999403953552,
				1,
				1
			],
			"translation":[
				-1.618172973394394e-08,
				0.16137123107910156,
				4.656612873077393e-10
			]
		},
		{
			"children":[
				16
			],
			"name":"LowerLeg.B.R",
			"rotation":[
				-0.3005785048007965,
				0.02095085382461548,
				-0.005467922892421484,
				0.9535112977027893
			],
			"scale":[
				0.9999999403953552,
				1,
				1
			],
			"translation":[
				1.6298145055770874e-09,
				0.22466498613357544,
				1.7695128917694092e-08
			]
		},
		{
			"children":[
				17
			],
			"name":"UpperLeg.B.R",
			"rotation":[
				0.6283589601516724,
				-0.08428056538105011,
				-0.08697076886892319,
				0.7684386372566223
			],
			"scale":[
				1,
				0.9999999403953552,
				1
			],
			"translation":[
				7.450580596923828e-09,
				0.20572468638420105,
				3.899913281202316e-09
			]
		},
		{
			"children":[
				18
			],
			"name":"Hip.R",
			"rotation":[
				0.15604132413864136,
				-0.032674990594387054,
				0.175876647233963,
				0.9714170098304749
			],
			"scale":[
				0.9999998807907104,
				0.9999999403953552,
				0.9999999403953552
			],
			"translation":[
				-0.02872774749994278,
				0.006814524531364441,
				0.001048440346494317
			]
		},
		{
			"name":"Tail.006",
			"rotation":[
				-0.010623743757605553,
				0.02003633603453636,
				0.08712329715490341,
				0.9959393739700317
			],
			"scale":[
				1,
				0.9999998807907104,
				0.9999999403953552
			],
			"translation":[
				3.4924596548080444e-08,
				0.03833626210689545,
				1.30385160446167e-08
			]
		},
		{
			"children":[
				20
			],
			"name":"Tail.005",
			"rotation":[
				-0.07879365235567093,
				0.08374710381031036,
				0.2874755561351776,
				0.9508605599403381
			],
			"scale":[
				1,
				1,
				1.0000001192092896
			],
			"translation":[
				3.888271749019623e-08,
				0.04465043917298317,
				1.1874362826347351e-08
			]
		},
		{
			"children":[
				21
			],
			"name":"Tail.004",
			"rotation":[
				-0.017582202330231667,
				0.048002056777477264,
				0.28716832399368286,
				0.9565150737762451
			],
			"scale":[
				1.0000001192092896,
				0.9999999403953552,
				1
			],
			"translation":[
				-8.463393896818161e-08,
				0.06087891757488251,
				-9.313225746154785e-10
			]
		},
		{
			"children":[
				22
			],
			"name":"Tail.003",
			"rotation":[
				-0.02324657514691353,
				0.019355762749910355,
				0.26041972637176514,
				0.965021550655365
			],
			"scale":[
				0.9999999403953552,
				1,
				0.9999999403953552
			],
			"translation":[
				4.0279701352119446e-08,
				0.08955618739128113,
				-4.656612873077393e-10
			]
		},
		{
			"children":[
				23
			],
			"name":"Tail.002",
			"rotation":[
				0.010598188266158104,
				-0.017558878287672997,
				0.27388012409210205,
				0.9615451097488403
			],
			"translation":[
				1.906118995975703e-08,
				0.12356133759021759,
				1.3969838619232178e-09
			]
		},
		{
			"children":[
				24
			],
			"name":"Tail.001",
			"rotation":[
				0.06492311507463455,
				-0.03147787228226662,
				0.321784108877182,
				0.9440599679946899
			],
			"scale":[
				1,
				0.9999998807907104,
				1
			],
			"translation":[
				-8.842825138799526e-09,
				0.13328233361244202,
				-9.313225746154785e-10
			]
		},
		{
			"children":[
				25
			],
			"name":"Tail",
			"rotation":[
				-0.8906298279762268,
				0.2630813717842102,
				0.15401609241962433,
				0.33741042017936707
			],
			"scale":[
				1,
				1,
				0.9999998211860657
			],
			"translation":[
				-0.006170895416289568,
				-0.09649953246116638,
				-0.037153758108615875
			]
		},
		{
			"children":[
				11,
				15,
				19,
				26
			],
			"name":"Hip",
			"rotation":[
				0.33302825689315796,
				-1.0116262956216815e-06,
				-3.572959883513249e-07,
				0.9429168701171875
			],
			"scale":[
				1,
				0.9999998807907104,
				1
			],
			"translation":[
				-1.1368683772161603e-13,
				0.10464656352996826,
				-0.5066405534744263
			]
		},
		{
			"mesh":0,
			"name":"Bake",
			"skin":0
		},
		{
			"children":[
				28,
				27
			],
			"name":"Armature"
		}
	],
	"materials":[
		{
			"doubleSided":true,
			"name":"Bake",
			"pbrMetallicRoughness":{
				"baseColorTexture":{
					"index":0
				},
				"metallicFactor":0,
				"roughnessFactor":0.5
			}
		}
	],
	"meshes":[
		{
			"name":"Gato.001",
			"primitives":[
				{
					"attributes":{
						"POSITION":0,
						"NORMAL":1,
						"TEXCOORD_0":2,
						"TANGENT":3,
						"JOINTS_0":4,
						"WEIGHTS_0":5
					},
					"indices":6,
					"material":0
				}
			]
		}
	],
	"textures":[
		{
			"sampler":0,
			"source":0
		}
	],
	"images":[
		{
			"mimeType":"image/png",
			"name":"Colour",
			"uri":"Colour.png"
		}
	],
	"skins":[
		{
			"inverseBindMatrices":7,
			"joints":[
				27,
				11,
				10,
				1,
				0,
				4,
				3,
				2,
				7,
				6,
				5,
				8,
				9,
				15,
				14,
				13,
				12,
				19,
				18,
				17,
				16,
				26,
				25,
				24,
				23,
				22,
				21,
				20
			],
			"name":"Armature"
		}
	],
	"accessors":[
		{
			"bufferView":0,
			"componentType":5126,
			"count":11772,
			"max":[
				0.17162300646305084,
				0.919792115688324,
				0.6131951808929443
			],
			"min":[
				-0.16779999434947968,
				-0.0020680283196270466,
				-0.7186607122421265
			],
			"type":"VEC3"
		},
		{
			"bufferView":1,
			"componentType":5126,
			"count":11772,
			"type":"VEC3"
		},
		{
			"bufferView":2,
			"componentType":5126,
			"count":11772,
			"type":"VEC2"
		},
		{
			"bufferView":3,
			"componentType":5126,
			"count":11772,
			"type":"VEC4"
		},
		{
			"bufferView":4,
			"componentType":5121,
			"count":11772,
			"type":"VEC4"
		},
		{
			"bufferView":5,
			"componentType":5126,
			"count":11772,
			"type":"VEC4"
		},
		{
			"bufferView":6,
			"componentType":5123,
			"count":11772,
			"type":"SCALAR"
		},
		{
			"bufferView":7,
			"componentType":5126,
			"count":28,
			"type":"MAT4"
		}
	],
	"bufferViews":[
		{
			"buffer":0,
			"byteLength":141264,
			"byteOffset":0,
			"target":34962
		},
		{
			"buffer":0,
			"byteLength":141264,
			"byteOffset":141264,
			"target":34962
		},
		{
			"buffer":0,
			"byteLength":94176,
			"byteOffset":282528,
			"target":34962
		},
		{
			"buffer":0,
			"byteLength":188352,
			"byteOffset":376704,
			"target":34962
		},
		{
			"buffer":0,
			"byteLength":47088,
			"byteOffset":565056,
			"target":34962
		},
		{
			"buffer":0,
			"byteLength":188352,
			"byteOffset":612144,
			"target":34962
		},
		{
			"buffer":0,
			"byteLength":23544,
			"byteOffset":800496,
			"target":34963
		},
		{
			"buffer":0,
			"byteLength":1792,
			"byteOffset":824040
		}
	],
	"samplers":[
		{
			"magFilter":9729,
			"minFilter":9987
		}
	],
	"buffers":[
		{
			"byteLength":825832,
			"uri":"Cat.bin"
		}
	]
}
